<svg width="39" height="41" viewBox="0 0 39 41" fill="none" xmlns="http://www.w3.org/2000/svg">
<path d="M19.4435 7.17206C19.6578 7.17206 19.9593 7.16677 20.2238 7.16412H20.2767C20.3799 7.16412 20.4751 7.16412 20.5518 7.16412H20.5571C20.6735 7.16412 20.8005 7.16941 20.9301 7.17206C23.8927 7.23554 26.4797 7.60851 28.6831 8.2751C30.8866 8.94169 32.7144 9.90189 34.1851 11.1504C35.5262 12.2905 36.5816 13.6422 37.3646 15.2266C38.1449 16.8058 38.6502 18.6178 38.8671 20.6652C38.8697 20.681 38.875 20.6969 38.8803 20.7128C38.9464 21.4111 38.9888 22.1359 38.9941 22.8845L39.0073 24.6091C39.0258 27.2173 38.6449 29.5054 37.8778 31.4707C37.1107 33.4387 35.9627 35.092 34.4205 36.4516C32.8863 37.8086 30.9395 38.8402 28.5509 39.5412C26.1623 40.2448 23.3346 40.6098 20.0678 40.631C16.7798 40.6522 13.9283 40.3242 11.5079 39.6523C9.09024 38.9831 7.10899 37.9779 5.5351 36.6421C3.95593 35.301 2.77089 33.6636 1.96675 31.7035C1.24197 29.9339 0.83196 27.8997 0.747314 25.5984C0.895445 25.974 1.05416 26.3444 1.22874 26.6988C2.05933 28.405 3.19941 29.8836 4.63839 31.1189C6.28369 32.5367 8.33636 33.5975 10.7726 34.3064C13.2088 35.0153 16.0286 35.375 19.2292 35.3962C19.4303 35.3962 19.6419 35.3988 19.8535 35.3962C20.0678 35.3962 20.2741 35.3909 20.4778 35.3856H20.4804C22.1416 35.3459 23.644 35.1872 24.9825 34.9174C25.5089 34.8169 26.0088 34.7031 26.485 34.5682C27.9557 34.1503 29.1804 33.5551 30.1486 32.7774C31.2199 31.9151 32.0161 30.7856 32.5292 29.4234C32.7673 28.7912 32.9472 28.1087 33.0688 27.3786C33.0768 27.3257 33.0873 27.2702 33.0979 27.2173C33.1032 27.1855 33.1059 27.1538 33.1112 27.122C33.2249 26.3602 33.2778 25.5561 33.2752 24.6938L33.2619 22.9691C33.2619 22.7601 33.2566 22.5485 33.2461 22.3448C33.2249 21.7179 33.1641 21.1201 33.0688 20.5514C32.8757 19.3373 32.5266 18.2607 32.0134 17.3163C31.5002 16.372 30.8231 15.5652 29.9898 14.9092C28.9 14.0495 27.4928 13.4279 25.7946 13.0232C24.0937 12.6185 22.0993 12.4307 19.8006 12.4439C17.5072 12.4598 15.5127 12.6714 13.8145 13.0946C12.119 13.5152 10.717 14.1474 9.62456 15.0071C8.79397 15.6684 8.12209 16.4805 7.61686 17.4354C7.59835 17.4698 7.58512 17.5094 7.56396 17.5438L7.55867 16.7767C7.55338 15.9329 7.60893 15.1526 7.71474 14.4278C7.71739 14.4093 7.72003 14.3881 7.72268 14.367C7.73061 14.3193 7.74119 14.2691 7.75177 14.2215C7.77029 14.1024 7.79409 13.9861 7.81525 13.8697C7.82848 13.8009 7.84435 13.7348 7.85757 13.6686C7.86286 13.6501 7.86816 13.6316 7.87081 13.6131L7.87874 13.5734C7.88668 13.539 7.89461 13.5046 7.90519 13.4729C7.91841 13.4094 7.93693 13.3433 7.95281 13.2798C7.99777 13.1105 8.05068 12.9386 8.10094 12.7772C8.11152 12.7455 8.1221 12.7164 8.13268 12.682C8.16971 12.5709 8.20939 12.4624 8.24906 12.3566C8.71991 11.1531 9.41294 10.2008 10.3388 9.46808C11.2223 8.77239 12.4047 8.20632 13.886 7.8069C14.2192 7.71697 14.5711 7.63497 14.9334 7.56355C15.9598 7.37045 17.1078 7.24612 18.3801 7.19057C18.5124 7.18793 18.6341 7.18 18.7478 7.17735H18.7531C18.8298 7.17471 18.9197 7.1747 19.0229 7.17206C19.1314 7.17206 19.2425 7.17206 19.4329 7.17206H19.4435Z" fill="#000A51"/>
<path d="M19.1868 0.000962035C22.4695 -0.0201994 25.3237 0.307803 27.7414 0.97968C30.1591 1.64891 32.1403 2.65408 33.7142 3.9899C35.2934 5.33101 36.4784 6.96838 37.2826 8.92846C38.0179 10.7193 38.4253 12.7851 38.5046 15.1208C38.3538 14.732 38.1872 14.3458 38.002 13.9755C37.1609 12.2693 36.0076 10.7933 34.5527 9.55802C32.9471 8.19046 30.9632 7.15619 28.6222 6.45257C26.2839 5.7463 23.5858 5.3654 20.5359 5.29662H20.5306C20.4168 5.29662 20.2899 5.29133 20.1523 5.28869H20.1497C20.0386 5.28869 19.9381 5.28869 19.8534 5.28869H19.7899C19.5175 5.28869 19.2106 5.29662 19.0096 5.29662C18.8324 5.29662 18.7319 5.29662 18.6075 5.29662H18.5917C18.507 5.29662 18.4118 5.29662 18.3007 5.30191H18.2981C18.2981 5.30191 18.2981 5.30191 18.2954 5.30191C18.1605 5.30456 18.0388 5.31249 17.9251 5.31514H17.9171C15.9518 5.39714 14.2351 5.64314 12.7643 6.06373C11.2936 6.47902 10.0689 7.07154 9.10075 7.85452C8.02945 8.71685 7.23589 9.84634 6.72008 11.2086C6.20427 12.5709 5.96356 14.1633 5.97414 15.9885L5.98736 17.7131C5.99265 18.5543 6.05614 19.3452 6.18046 20.0832C6.37356 21.2947 6.72272 22.3739 7.23589 23.3183C7.74905 24.26 8.42623 25.0694 9.25946 25.7254C10.3493 26.5824 11.7565 27.2067 13.4547 27.6114C15.1556 28.0161 17.15 28.2039 19.4487 28.1907C21.7421 28.1748 23.7366 27.9632 25.4348 27.54C27.1303 27.1194 28.5323 26.4872 29.6247 25.6275C30.4553 24.9662 31.1272 24.1542 31.6324 23.1992C31.651 23.1649 31.6642 23.1252 31.6853 23.0908L31.6906 23.9081C31.7039 25.6196 31.4658 27.0797 30.9976 28.2806C30.5267 29.4816 29.8337 30.4365 28.9079 31.1665C28.0244 31.8649 26.842 32.4309 25.3607 32.8304C23.8794 33.2298 22.0992 33.4652 20.0359 33.5181C19.8323 33.5234 19.6286 33.526 19.4276 33.5287C19.2265 33.5313 19.0175 33.5287 18.8165 33.5287C15.7058 33.5075 12.9998 33.1557 10.7037 32.4865C8.40506 31.8173 6.5164 30.8332 5.01394 29.5397C3.6887 28.3997 2.64385 27.0453 1.8741 25.4635C1.09906 23.8817 0.601768 22.0724 0.387508 20.0224C0.313443 19.2949 0.271122 18.5384 0.265832 17.7554L0.252601 16.0308C0.234085 13.4226 0.612349 11.1345 1.37945 9.16918C2.14656 7.19851 3.29457 5.54791 4.83671 4.18564C5.60382 3.50848 6.47144 2.91067 7.45016 2.3975C8.42887 1.88169 9.51075 1.44523 10.7037 1.09607C13.0923 0.395094 15.92 0.0300588 19.1895 0.00889727L19.1868 0.000962035Z" fill="#000A51"/>
</svg>
